<?xml version="1.0" standalone="no"?>
<!DOCTYPE svg PUBLIC "-//W3C//DTD SVG 20010904//EN"
 "http://www.w3.org/TR/2001/REC-SVG-20010904/DTD/svg10.dtd">
<svg version="1.0" xmlns="http://www.w3.org/2000/svg"
 width="160.000000pt" height="160.000000pt" viewBox="0 0 160.000000 160.000000"
 preserveAspectRatio="xMidYMid meet">

<g transform="translate(0.000000,160.000000) scale(0.100000,-0.100000)"
fill="#000000" stroke="none">
<path d="M610 1510 c-252 -66 -448 -259 -522 -515 -31 -110 -31 -276 1 -390
70 -251 262 -445 511 -515 256 -72 534 2 717 191 68 71 84 92 126 169 103 189
114 440 30 635 -94 215 -294 384 -508 430 -99 21 -262 18 -355 -5z m365 -54
c113 -31 203 -84 296 -176 74 -73 93 -100 132 -180 59 -124 72 -182 71 -315
-1 -90 -5 -124 -27 -190 -60 -184 -189 -331 -362 -415 -180 -86 -421 -80 -608
17 -98 50 -228 181 -280 280 -162 311 -66 696 222 888 82 54 123 72 216 97 85
22 247 19 340 -6z"/>
<path d="M712 1419 c-35 -4 -80 -13 -100 -20 -55 -17 -164 -76 -203 -109 -31
-26 -33 -30 -18 -45 14 -14 21 -12 82 29 81 55 152 81 248 95 156 21 334 -28
437 -122 l22 -21 21 21 21 20 -72 48 c-129 86 -288 123 -438 104z"/>
<path d="M615 870 l-185 -370 375 0 375 0 -22 45 -22 45 -273 0 c-177 0 -273
4 -273 10 0 13 208 430 215 430 3 0 36 -63 75 -140 l70 -140 -35 0 c-33 0 -36
3 -70 70 -19 39 -37 70 -40 70 -5 0 -115 -215 -115 -225 0 -3 92 -5 205 -5
l205 0 -145 290 c-80 160 -147 290 -150 290 -3 0 -88 -166 -190 -370z"/>
<path d="M296 1173 c-110 -148 -149 -330 -111 -514 15 -72 75 -199 120 -253
20 -25 26 -28 39 -17 22 18 20 28 -13 70 -42 54 -70 114 -92 198 -43 171 -11
334 96 485 33 45 33 47 15 63 -18 16 -20 14 -54 -32z"/>
<path d="M1245 1200 c-17 -19 -16 -20 9 -51 15 -18 40 -57 56 -89 95 -188 82
-410 -35 -584 -43 -64 -45 -70 -30 -85 15 -15 18 -13 45 19 42 50 97 165 116
240 23 91 15 271 -16 359 -18 50 -112 211 -124 211 -2 0 -11 -9 -21 -20z"/>
<path d="M1118 320 c-192 -134 -481 -130 -658 10 -43 34 -52 36 -70 15 -16
-19 20 -51 112 -100 131 -70 286 -91 432 -60 80 17 199 73 251 118 35 31 36
33 18 48 -17 15 -23 12 -85 -31z"/>
</g>
</svg>
